<?xml version="1.0" encoding="UTF-8"?>
<svg id="_레이어_1" data-name="레이어 1" xmlns="http://www.w3.org/2000/svg" viewBox="0 0 142 125">
  <defs>
    <style>
      .cls-1 {
        fill: #e71d16;
        stroke-width: 0px;
      }
    </style>
  </defs>
  <path class="cls-1" d="m50.33,15.53c-5.43.99-11.01.05-16.49.4s-11.1,2.25-14.97,6.64-5.77,9.93-6.59,15.63c-.92,6.39-1.04,12.93-.94,19.38s.43,12.48,1.33,18.64c.69,4.76,1.96,9.72,4.7,13.75,3.16,4.65,7.77,7.05,13.22,8.07,6.18,1.16,12.47,1.15,18.72.8,7-.39,13.99-1.15,21-.89,3.38.12,6.68.54,9.98,1.25,3.54.76,7.04,1.69,10.62,2.28l-1.49-3.67c-2.12,4.91-3.47,9.97-4.07,15.29-.23,2.01,2.25,2.94,3.76,2.16,11.53-5.98,22.97-12.56,33.5-20.18,2.36-1.7,4.63-3.54,6.44-5.84,1.96-2.48,3.23-5.33,3.93-8.41,1.45-6.39,1.66-13.24,1.71-19.77s-.43-13.56-1.36-20.28c-.46-3.33-1.03-6.64-1.73-9.93-.62-2.89-1.26-5.96-3.03-8.4-3.66-5.01-10.35-5.5-16.01-6.33-6.8-.99-13.63-1.73-20.49-2.17-15.37-.99-30.82-.54-46.12,1.3-1.34.16-2.5,1.03-2.5,2.5,0,1.23,1.15,2.66,2.5,2.5,12.96-1.57,26.03-2.13,39.07-1.66,6.48.23,12.95.72,19.39,1.46,3.16.36,6.31.79,9.46,1.28,2.56.4,5.33.69,7.72,1.74,2.27,1,3.5,2.78,4.21,5.1.89,2.9,1.4,5.95,1.93,8.93,1.1,6.32,1.72,12.72,1.9,19.13s-.08,12.78-.81,19.12c-.31,2.71-.75,5.58-1.96,8.05s-2.99,4.29-5.02,5.98c-2.38,1.97-5.04,3.63-7.62,5.33-3.02,1.99-6.07,3.92-9.16,5.8-6.04,3.68-12.21,7.14-18.48,10.4l3.76,2.16c.49-4.37,1.65-8.73,3.39-12.76.57-1.31.27-3.38-1.49-3.67-5.96-.99-11.74-2.81-17.77-3.43s-11.97-.27-17.93.13-11.8.88-17.71.61c-4.88-.23-11.04-.61-14.89-4-3.21-2.82-4.76-6.94-5.7-11-1.19-5.14-1.48-10.49-1.73-15.74-.29-6.2-.26-12.43.12-18.63.33-5.39,1.04-10.97,3.8-15.71,1.3-2.23,3.03-4.26,5.24-5.63,2.33-1.45,5.04-2.1,7.76-2.31,6.09-.47,12.17.49,18.23-.61,1.33-.24,2.08-1.86,1.75-3.08-.38-1.4-1.74-1.99-3.08-1.75h0Z"/>
  <path class="cls-1" d="m34.65,39.64c2.75,2.85,6.02,4.83,9.68,6.3s7.61,2.96,11.41,4.43c1.26.49,2.74-.54,3.08-1.75.39-1.41-.48-2.59-1.75-3.08-3.57-1.38-7.14-2.76-10.7-4.15-3.11-1.22-5.85-2.89-8.18-5.3s-5.77,1.22-3.54,3.54h0Z"/>
  <path class="cls-1" d="m90.52,47.62c6.69-4.85,15.2-6.67,21.11-12.69,2.26-2.3-1.28-5.84-3.54-3.54-5.52,5.62-13.78,7.34-20.1,11.91-1.09.79-1.63,2.17-.9,3.42.63,1.08,2.32,1.69,3.42.9h0Z"/>
  <path class="cls-1" d="m51.54,56.53c-.16.07-.32.14-.47.22-.33.17-.61.4-.9.64-.56.45-.92,1.08-1.15,1.75-.03.07-.05.15-.06.23-.05.26-.1.56-.1.83,0,.59.15,1.12.42,1.64.15.28.35.55.58.76.44.4.79.59,1.34.79.63.23,1.32.15,1.97.03.13-.02.26-.06.38-.11.32-.12.65-.25.95-.41.43-.22.8-.54,1.18-.84.41-.32.76-.71,1.02-1.16.14-.24.25-.51.34-.77.03-.08.05-.15.06-.23.1-.63.13-1.05-.02-1.68-.11-.45-.32-.8-.59-1.16s-.37-.45-.81-.75c-.23-.16-.5-.24-.76-.34-.33-.1-.66-.12-1-.04-.33.02-.64.11-.93.3-.29.16-.53.37-.7.64-.22.24-.37.52-.45.85-.15.64-.11,1.36.25,1.93l.39.51c.31.31.68.52,1.1.64h.04c-.2-.07-.4-.15-.6-.24.05.02.09.05.13.08l-.51-.39s.07.07.1.1l-.39-.51c.04.05.07.1.1.16l-.25-.6c.03.07.05.15.06.22l-.09-.66c.01.09.01.18,0,.28l.09-.66c-.01.08-.03.15-.06.23l.25-.6c-.05.12-.12.23-.2.34l.39-.51c-.17.21-.37.38-.58.54l.51-.39c-.26.2-.54.38-.85.51l.6-.25c-.19.08-.39.14-.59.17l.66-.09c-.11.01-.22.02-.34,0l.66.09c-.08-.01-.16-.03-.24-.06l.6.25c-.05-.02-.1-.05-.15-.09l.51.39c-.06-.05-.11-.1-.16-.15l.39.51c-.04-.06-.08-.12-.11-.19l.25.6c-.03-.07-.04-.14-.06-.22l.09.66c0-.08,0-.15,0-.23l-.09.66c.02-.11.04-.21.08-.32l-.25.6c.05-.1.1-.2.17-.29l-.39.51c.09-.12.21-.22.33-.32l-.51.39c.27-.2.57-.33.87-.47.29-.16.53-.37.7-.64.22-.24.37-.52.45-.85.1-.33.12-.66.04-1-.02-.33-.11-.64-.3-.93-.34-.53-.86-1-1.49-1.15l-.66-.09c-.45,0-.87.12-1.26.34h0Z"/>
  <path class="cls-1" d="m94.31,51.6c-1.24,1.37-2.3,2.9-3.05,4.6-.9,2.06-1.77,4.58-.42,6.66s3.94,2.63,6.25,2.09c1.04-.24,2.06-.7,3.03-1.13s1.77-.94,2.56-1.6c1.74-1.45,2.67-3.85,2.15-6.07-.47-2.02-2.3-3.64-4.28-4.13-2.18-.54-4.3.18-5.99,1.57s-2.96,3.68-2.37,5.82c.83,3,4.96,3.72,6.92,1.4.86-1.01,1.35-2.32,1.27-3.65s-.61-2.62-1.2-3.87c-.56-1.18-2.35-1.59-3.42-.9-1.22.78-1.5,2.15-.9,3.42.08.16.15.32.22.48.27.54-.17-.52.03.05.04.11.39.93.3,1-.04.03-.02-.54-.03-.18,0,.1-.03.33,0,.42l.06-.39c-.01.09-.03.18-.06.27-.02.09-.05.18-.08.26.17-.38.2-.46.08-.22-.25.43.41-.43.06-.07-.13.14-.32.2.2-.14-.38.25.6-.18.16-.06s.66-.02.19-.02.65.14.19.03.54.31.18.06c.25.17.41.31.57.57-.12-.2-.09-.13.08.22.03.42.05.5.04.22-.08.75-.02.24.01.06.09-.51-.28.47-.01.02.12-.21.24-.41.38-.62.28-.43-.4.43-.04.06.1-.1.19-.21.29-.31s.21-.19.31-.29c.35-.33-.49.34,0,0,.21-.14.48-.23.68-.37-.44.33-.36.14-.07.06.13-.04.27-.07.41-.1.48-.12-.51.03-.18.03.11,0,.22-.01.34,0h.13c.27.03.18.02-.27-.03.14.07.37.1.52.14.48.14-.53-.28-.1-.04.08.04.16.09.23.13l.11.07c.21.15.15.1-.18-.15.07.1.21.18.29.27l.09.1c.17.2.12.13-.15-.19.01.06.15.3.2.34-.26-.24-.17-.5-.1-.24.03.08.05.17.07.25.05.26.04.17-.03-.25-.01.03-.02.42,0,.45l.05-.37c-.02.1-.04.2-.06.29l-.04.14c-.09.25-.06.19.09-.17-.04.03-.12.25-.14.27-.07.13-.16.26-.24.39-.28.45.39-.39,0-.03-.11.1-.21.22-.32.32-.08.07-.17.15-.25.21.27-.2.33-.25.18-.14-.26.16-.5.33-.77.47-.17.09-.7.47-.89.43l.29-.12c-.08.03-.15.06-.23.09-.13.05-.26.1-.39.15-.39.15-.77.29-1.17.41-.17.05-.34.08-.51.13-.5.13.15-.02.14,0-.04.05-.46.02-.53.02h-.13c-.27-.03-.18-.02.26.03-.09-.05-.29-.08-.4-.1-.47-.12.5.31.1.03-.06-.04-.45-.29-.08-.03.18.14.2.15.05.02-.17-.19-.13-.12.14.2l-.07-.11c-.11-.22-.09-.15.07.19-.03-.1-.06-.2-.07-.3.05.41.06.47.05.2v-.16c.03-.27.02-.21-.03.19.05-.03.09-.42.1-.47.09-.36.22-.72.35-1.07.02-.06.2-.4.18-.45-.14.33-.17.4-.09.23.03-.07.07-.15.1-.22.29-.63.63-1.24,1.01-1.82.09-.13.18-.27.27-.4.06-.09.12-.17.19-.26.16-.21.13-.17-.1.12-.04-.08.65-.77.73-.86.88-.97,1.03-2.59,0-3.54-.96-.88-2.6-1.03-3.54,0h0Z"/>
  <path class="cls-1" d="m69.88,78.6c.79-2.7,1.71-5.37,2.85-7.94.59-1.33,1.22-2.65,1.89-3.94.31-.6.63-1.19.96-1.78.16-.29.33-.59.5-.88.11-.19.23-.39.34-.58.46-.65.09-.53-1.09.38l-1.26-.34c.1.04.73.47.52.3.27.22.53.46.78.7s.48.5.71.77c0,0,.48.62.26.31.82,1.11,1.49,2.33,2.1,3.56,1.23,2.48,2.25,5.07,3.76,7.41l.9-3.42c-5.08,2.81-10.77,4.28-16.56,4.32-3.22.02-3.22,5.02,0,5,6.68-.04,13.24-1.77,19.08-5,1.15-.63,1.62-2.3.9-3.42-2.51-3.91-3.75-8.47-6.73-12.1-.77-.94-1.69-1.78-2.7-2.46-1.73-1.18-3.64-.58-4.76,1.08-1.54,2.29-2.74,4.9-3.86,7.42-1.34,3.02-2.5,6.11-3.42,9.29-.38,1.3.46,2.72,1.75,3.08s2.7-.45,3.08-1.75h0Z"/>
</svg>