<?xml version="1.0" encoding="UTF-8"?>
<svg id="_레이어_1" data-name="레이어_1" xmlns="http://www.w3.org/2000/svg" viewBox="0 0 142 125">
  <defs>
    <style>
      .cls-1 {
        fill: #502088;
      }
    </style>
  </defs>
  <path class="cls-1" d="M50.33,15.53c-5.43.99-11.01.05-16.49.4s-11.1,2.25-14.97,6.64-5.77,9.93-6.59,15.63c-.92,6.39-1.04,12.93-.94,19.38s.43,12.48,1.33,18.64c.69,4.76,1.96,9.72,4.7,13.75,3.16,4.65,7.77,7.05,13.22,8.07,6.18,1.16,12.47,1.15,18.72.8,7-.39,13.99-1.15,21-.89,3.38.12,6.68.54,9.98,1.25,3.54.76,7.04,1.69,10.62,2.28l-1.49-3.67c-2.12,4.91-3.47,9.97-4.07,15.29-.23,2.01,2.25,2.94,3.76,2.16,11.53-5.98,22.97-12.56,33.5-20.18,2.36-1.7,4.63-3.54,6.44-5.84,1.96-2.48,3.23-5.33,3.93-8.41,1.45-6.39,1.66-13.24,1.71-19.77s-.43-13.56-1.36-20.28c-.46-3.33-1.03-6.64-1.73-9.93-.62-2.89-1.26-5.96-3.03-8.4-3.66-5.01-10.35-5.5-16.01-6.33-6.8-.99-13.63-1.73-20.49-2.17-15.37-.99-30.82-.54-46.12,1.3-1.34.16-2.5,1.03-2.5,2.5,0,1.23,1.15,2.66,2.5,2.5,12.96-1.57,26.03-2.13,39.07-1.66,6.48.23,12.95.72,19.39,1.46,3.16.36,6.31.79,9.46,1.28,2.56.4,5.33.69,7.72,1.74,2.27,1,3.5,2.78,4.21,5.1.89,2.9,1.4,5.95,1.93,8.93,1.1,6.32,1.72,12.72,1.9,19.13.18,6.38-.08,12.78-.81,19.12-.31,2.71-.75,5.58-1.96,8.05s-2.99,4.29-5.02,5.98c-2.38,1.97-5.04,3.63-7.62,5.33-3.02,1.99-6.07,3.92-9.16,5.8-6.04,3.68-12.21,7.14-18.48,10.4l3.76,2.16c.49-4.37,1.65-8.73,3.39-12.76.57-1.31.27-3.38-1.49-3.67-5.96-.99-11.74-2.81-17.77-3.43s-11.97-.27-17.93.13-11.8.88-17.71.61c-4.88-.23-11.04-.61-14.89-4-3.21-2.82-4.76-6.94-5.7-11-1.19-5.14-1.48-10.49-1.73-15.74-.29-6.2-.26-12.43.12-18.63.33-5.39,1.04-10.97,3.8-15.71,1.3-2.23,3.03-4.26,5.24-5.63,2.33-1.45,5.04-2.1,7.76-2.31,6.09-.47,12.17.49,18.23-.61,1.33-.24,2.08-1.86,1.75-3.08-.38-1.4-1.74-1.99-3.08-1.75h0Z"/>
  <path class="cls-1" d="M44.95,46.65c-.75.09-1.33.2-2,.58-.28.16-.54.38-.79.58-.13.11-.25.23-.35.36-.44.55-.8,1.08-.97,1.77-.13.53-.18,1.15-.02,1.68.23.72.67,1.31,1.31,1.7.41.26.95.44,1.44.53.54.1,1.1.19,1.65.13.78-.08,1.41-.23,2.11-.6.29-.15.54-.38.79-.58.12-.1.23-.21.33-.33.46-.55.8-1.08,1-1.78s.18-1.39.03-2.08c-.07-.31-.22-.63-.36-.91-.15-.3-.38-.57-.59-.82-.16-.18-.34-.31-.53-.46s-.38-.3-.61-.41c-.69-.33-1.22-.47-1.98-.54-.13-.01-.26,0-.39,0-.36.03-.75.07-1.1.18-1,.3-1.94.9-2.64,1.67-.66.72-1.15,1.53-1.15,2.54,0,.41.1.75.26,1.12s.34.65.61.93c.12.13.38.31.53.41.04.03.09.06.14.09.25.13.52.23.78.34,1.01.42,2.04.6,3.11.74.34.01.67-.06.96-.22.31-.1.58-.27.8-.52.43-.43.76-1.15.73-1.77s-.24-1.32-.73-1.77l-.51-.39c-.39-.23-.81-.34-1.26-.34h-.08c.22.02.44.05.66.08-.83-.12-1.63-.34-2.41-.66l.6.25c-.1-.04-.2-.09-.29-.16l.51.39s-.06-.06-.09-.09l.39.51-.03-.05.25.6s-.03-.08-.04-.13l.09.66s0-.09,0-.13l-.09.66s.02-.09.03-.13l-.25.6c.05-.11.11-.21.18-.31l-.39.51c.22-.27.47-.52.74-.73l-.51.39c.22-.17.46-.31.71-.42l-.6.25c.21-.09.43-.15.66-.18l-.66.09c.18-.02.36-.02.55,0l-.66-.09c.18.03.35.07.52.14l-.6-.25c.17.07.32.16.46.26l-.51-.39c.11.09.2.18.29.28l-.39-.51c.08.11.15.22.21.35l-.25-.6c.05.11.08.23.1.35l-.09-.66c.02.14.02.28,0,.42l.09-.66c-.02.16-.07.32-.13.47l.25-.6c-.07.15-.15.29-.25.43l.39-.51c-.11.13-.22.25-.35.35l.51-.39c-.14.11-.29.19-.44.26l.6-.25c-.22.09-.45.15-.69.19l.66-.09c-.27.03-.53.02-.8,0l.66.09c-.31-.04-.61-.12-.89-.23l.6.25c-.06-.03-.1-.05-.15-.09l.51.39s-.06-.05-.08-.08l.39.51-.03-.05.25.6s-.03-.09-.04-.13l.09.66s0-.09,0-.14l-.09.66c.02-.13.06-.25.11-.38l-.25.6c.07-.16.15-.3.25-.43l-.39.51c.12-.15.25-.28.4-.4l-.51.39c.14-.1.28-.18.43-.25l-.6.25c.16-.06.32-.11.48-.13l-.66.09h.06c.34,0,.67-.07.96-.22.31-.1.58-.27.8-.52.43-.43.76-1.15.73-1.77s-.24-1.32-.73-1.77c-.45-.42-1.13-.81-1.77-.73h0Z"/>
  <path class="cls-1" d="M97.65,41.22c-1.66.74-3.37,1.57-4.63,2.94s-2.2,3.36-2,5.32c.21,2.08,1.46,3.85,3.3,4.84s3.83,1.12,5.84,1.07c2.17-.06,4.19-.27,5.95-1.66,1.46-1.16,2.47-3.04,2.98-4.81.61-2.1.35-4.38-1.17-6.03-1.38-1.5-3.44-2.22-5.42-2.37-1.82-.14-3.78.41-5.27,1.46-1.7,1.2-3.22,3.05-3.44,5.19-.28,2.77,2.46,4.53,4.96,4.33s5.11-1.27,5.17-4.07-2.56-3.78-4.79-4.05c-1.77-.21-3.7.1-5.18,1.12-1.11.76-2.04,1.84-2.09,3.24s.73,2.59,1.87,3.3c.94.58,2.09.67,3.16.76s2.23.05,3.31-.22c2.18-.53,4.55-2.41,4.65-4.82.09-2.03-1.73-3.53-3.72-3.03-.56.14-1.04.44-1.51.75-.63.42-1.31.84-1.68,1.53-.94,1.75.01,3.74,1.9,4.27,1.27.36,2.72.44,3.91-.21,1.3-.71,2.12-2.06,1.92-3.56-.22-1.65-1.57-2.87-3.25-2.9-1.31-.02-2.56,1.16-2.5,2.5s1.1,2.48,2.5,2.5c-1.39-.02-2.35-1.82-1.23-2.81.3-.2.34-.23.11-.09.13-.1.27-.14.42-.14.21-.02.19-.02-.07-.01-.29-.02-.29-.02.02,0-.14-.03-.28-.06-.42-.09-.26-.07-.21-.05.17.06l.9.9-.08-.13.34,1.26c-1.06,1.37-1.27,1.82-.63,1.35.1-.07.2-.13.3-.2.1-.07.2-.13.3-.2.66-.36.14-.4-1.55-.12l-.9-.9-.11-.62c-.16-.27-.18-.52-.06-.75-.1-.29.17-.03-.03.03l-.05.08c-.1.15-.06.1.12-.14,0,0-.17.18-.19.2s-.2.19-.2.19c-.02-.02.4-.25.14-.11-.04.02-.56.33-.56.32-.02-.07.47-.15.09-.05-.1.03-.19.06-.29.08-.11.03-.22.05-.34.08-.04,0-.41.05-.12.02s-.1,0-.13,0c-.15,0-.31.01-.46.01-.27,0-.54-.01-.81-.03-.23-.02-.46-.05-.69-.06-.33-.03.14.03.16.02-.09.02-.32-.07-.39-.08-.09-.02-.3-.16-.06-.02.12.07.25.11.35.22s.18.24.24.37c.13.23.13.48,0,.75.07.28.03.51-.13.7,0,0-.08.16.08-.05-.22.29-.23.15-.04.04.07-.04.43-.31.5-.28.03.01-.46.14-.15.07.09-.02.18-.06.28-.09.12-.03.25-.06.38-.09.42-.1-.08-.01-.08,0,.04-.11,1.06,0,1.18,0,.4.02-.04-.05-.08-.01.02-.02.26.05.29.06.07.01.59.2.62.17-.03.02-.42-.22-.19-.07s-.14-.14-.15-.15c.39.41-.27-.56-.28-.57-.06-.24-.02-.74.08-.96.06-.13.14-.26.25-.36.02-.02.41-.24.15-.11s.12-.04.14-.04c-.16.05-.32.09-.49.13-.1.02-.64.12-.45.09.27-.03-.13,0-.15,0-.12,0-.24,0-.36,0-.3,0,.02,0,.07,0-.18-.03-.33-.21.11.05.02,0,.34.32.15.12-.15-.16.15.24.18.31.11.26.05.44.06.68,0,.16,0,0,.05-.1.06-.11.12-.23.19-.34.1-.17.21-.32.32-.49-.27.4.03-.01.17-.16.16-.16.33-.31.5-.46-.31.28-.07.06.12-.06.16-.1.34-.19.51-.29.28-.16.03-.12-.07.02.04-.06.3-.11.37-.13.2-.06.41-.11.61-.16.47-.11-.31,0,.17-.02.25,0,.49-.01.74,0,.11,0,.21.02.31.03-.22-.02-.31-.06-.04.01.23.06.47.15.71.2.26.05-.06-.04-.11-.06.1.04.19.09.28.14.18.09.35.22.52.3.23.11-.08-.07-.11-.1.12.1.23.23.35.33.2.15-.06-.08-.09-.13.04.08.1.18.15.25.16.21-.04-.08-.05-.14.02.09.05.2.08.29.12.3-.05-.2-.01-.18.03.02.01.34.01.4,0,.1-.02.2-.02.3,0,.34.11-.38,0-.06-.07.19-.1.41-.16.6-.05.17-.27.74-.08.28-.17.4-.38.79-.61,1.17-.1.17-.44.59-.13.23-.13.15-.26.3-.4.44-.07.07-.15.13-.22.2-.2.19.08-.08.11-.09-.09.04-.25.14-.34.2.17-.12.25-.08,0,0-.21.06-.42.12-.63.16-.47.11.28,0-.2.03-.53.04-1.05.06-1.58.07s-1.04.02-1.55,0c-.12,0-.24-.01-.36-.02-.02,0-.42-.04-.14,0s-.11-.02-.14-.02c-.19-.04-.39-.08-.58-.13-.1-.03-.19-.06-.29-.09-.41-.11.09.04.08.05-.02.03-.53-.27-.58-.3-.07-.04-.42-.25-.13-.07.27.17-.04-.04-.1-.1-.07-.06-.13-.13-.19-.19-.3-.29.08.06.05.08,0,0-.14-.21-.14-.23-.28-.48-.02.02-.01.02-.01,0-.07-.26-.08-.28-.12-.28,0,.39,0,.1,0-.09,0-.19,0-.29-.02-.44,0,.1-.03.09-.04-.01.19-.68.21-.75-.01.04-.2.38-.05.15.07-.11.12-.23.19-.35.05-.09.11-.17.16-.25.24-.39-.17.14.03-.04.18-.16.34-.34.51-.51.03-.02.29-.26.07-.07s.13-.09.17-.12c.91-.63,1.92-1.08,2.93-1.53,1.2-.54,1.57-2.37.9-3.42-.8-1.24-2.14-1.47-3.42-.9h0Z"/>
  <path class="cls-1" d="M44.47,43.95c-1.89.13-3.4,1.44-3.76,3.32-.3,1.52-.25,3.3.92,4.46.61.61,1.39.9,2.23,1.02.76.11,1.51.2,2.28.21,1.2,0,2.52-.2,3.54-.88,1.3-.87,2.14-2.36,2.03-3.94-.09-1.35-.65-2.67-1.71-3.54-2.29-1.85-5.36-1.6-7.77-.1-1.12.7-2.3,1.58-2.97,2.74-.76,1.32-.86,3.07,0,4.38s2.48,1.79,3.96,2.15c1.18.29,2.41.51,3.62.56s2.64-.2,3.67-.95c1.29-.94,1.98-2.26,2.09-3.85.2-2.71-1.99-5.12-4.57-5.65-1.7-.35-3.3-.06-4.87.62-1.3.56-2.58,1.44-3.31,2.68-1.04,1.76-.77,4.12.88,5.4,1.15.89,2.7,1.36,4.12,1.62.67.12,1.32.1,1.93-.25.52-.3,1.01-.9,1.15-1.49.28-1.23-.37-2.82-1.75-3.08-.83-.15-1.64-.39-2.42-.71l.6.25c-.21-.09-.42-.19-.62-.3-.29-.16.13.11.19.15-.13-.15-.12-.13.03.06.14.19.16.21.07.04l.25.6c-.06-.16-.1-.3-.13-.47l.09.66c-.01-.17,0-.33.02-.5l-.09.66c.03-.17.08-.32.14-.48l-.25.6s.16-.35.19-.34c0,0-.45.51-.1.15.08-.08.16-.15.24-.23.33-.34-.49.32-.08.06.45-.29.9-.55,1.4-.76l-.6.25c.46-.19.93-.32,1.43-.4l-.66.09c.42-.05.84-.06,1.27,0l-.66-.09c.34.05.67.14.99.27l-.6-.25c.18.08.35.16.51.26.07.04.14.09.21.14.22.13-.47-.43-.16-.11.06.06.12.12.18.18.25.24-.12-.19-.15-.21.13.08.23.38.3.52l-.25-.6c.1.25.17.51.21.78l-.09-.66c.02.23.02.46,0,.69l.09-.66c-.03.23-.09.44-.17.66l.25-.6c-.06.14-.13.27-.21.4-.2.35.42-.44.11-.15s.52-.29.12-.08c-.15.08-.29.16-.44.23l.6-.25c-.28.1-.56.17-.86.21l.66-.09c-.62.07-1.23.02-1.84-.05l.66.09c-1.32-.18-2.68-.45-3.91-.96l.6.25c-.08-.03-.15-.07-.23-.12.31.26.39.33.26.2-.14-.14-.07-.04.22.29-.04-.06-.07-.13-.1-.2l.25.6c-.04-.11-.07-.21-.09-.32l.09.66c-.02-.19-.02-.38,0-.57l-.09.66c.03-.15.07-.29.13-.44l-.25.6c.07-.15.22-.32.27-.47-.24.3-.3.38-.17.24.05-.05.09-.1.14-.15.11-.11.23-.22.36-.33.46-.38-.41.29,0,0,.55-.39,1.1-.75,1.72-1.02l-.6.25c.39-.16.79-.27,1.2-.34l-.66.09c.34-.04.68-.04,1.02,0l-.66-.09c.3.04.57.11.85.22l-.6-.25c.16.07.3.15.45.22.39.2-.46-.43-.06-.05.04.04.08.08.12.13.16.19.1.11-.18-.24.05.13.16.27.22.4l-.25-.6c.09.21.14.43.18.66l-.09-.66c.02.19.02.37,0,.56l.09-.66c-.03.19-.07.36-.14.53l.25-.6s-.13.3-.15.29c.05.02.42-.58.13-.19-.09.09-.05.06.11-.08.19-.14.21-.16.06-.05-.11.05-.21.12-.32.17l.6-.25c-.31.13-.63.21-.97.25l.66-.09c-.83.1-1.67.04-2.5-.07l.66.09c-.28-.04-.55-.08-.82-.17l.6.25c-.23-.12-.16-.06.2.19.26.37.32.45.2.23l.25.6c-.06-.14-.1-.29-.13-.44l.09.66c-.05-.39-.03-.78.02-1.17l-.09.66c.04-.24.09-.47.18-.7l-.25.6c.1-.23.45-.59-.05-.02.19-.17.11-.12-.22.16.07-.04.14-.08.22-.1l-.6.25c.07-.03.15-.05.23-.06l-.66.09h.12c.67-.05,1.28-.26,1.77-.74.43-.43.76-1.15.73-1.77-.06-1.28-1.1-2.6-2.5-2.5h0Z"/>
  <path class="cls-1" d="M51.09,32.85c-.62,1.37-1.99,1.8-3.4,1.84-2.24.06-4.46-.45-6.7-.39-4.33.1-8.59,1.4-12.24,3.72-2.71,1.72-.2,6.05,2.52,4.32,3.67-2.33,7.84-3.33,12.16-2.95,2.37.21,4.77.59,7.1-.1,2.04-.61,3.98-1.92,4.88-3.91.55-1.23.35-2.69-.9-3.42-1.07-.63-2.86-.34-3.42.9h0Z"/>
  <path class="cls-1" d="M86.52,34.44c1.45,1.81,3.9,2.28,6.09,2.07s4.51-.59,6.79-.73c3.03-.18,7.68-.89,9.92,1.72.88,1.03,2.63.9,3.54,0,1.02-1.02.88-2.51,0-3.54-2.65-3.1-7.01-3.37-10.8-3.29-2.29.05-4.57.21-6.84.49-1.48.18-4.07,1.1-5.16-.26-.85-1.05-2.65-.88-3.54,0-1.04,1.04-.85,2.48,0,3.54h0Z"/>
  <path class="cls-1" d="M66.86,47.93c-.69,1.71-1.02,3.51-1.55,5.27s-1.3,3.44-2.15,5.08c-1.65,3.2-3.54,6.27-4.9,9.61s-2.14,6.78-1.71,10.28c.19,1.53.49,3.2,1.39,4.5,1.26,1.82,3.4,2.07,5.44,2.22,3.75.27,7.48-.44,11.22-.49,3.23-.04,7.26,1.4,9.8-1.36s1.58-7.25.63-10.47c-.51-1.76-1.09-3.48-1.41-5.29s-.42-3.59-.61-5.38c-.42-3.96-1.12-8.02-3.59-11.27s-6.24-4.97-10.28-4.32c-1.33.21-2.08,1.88-1.75,3.08.39,1.42,1.74,1.96,3.08,1.75,2.05-.33,4.16,1.22,5.22,2.84,1.54,2.34,2.03,5.19,2.32,7.93.33,3.16.54,6.32,1.42,9.39.7,2.48,2.11,5.43,1.43,8.05-.04.17-.14.29-.24.41.18-.2.45-.02-.13-.02-.51,0-1,.01-1.52-.04-1.54-.16-3.05-.32-4.6-.29-3.2.07-6.39.58-9.59.54-.7,0-1.4-.03-2.09-.12-.31-.04-1.01-.38-.62.06-.69-.77-.65-2.83-.63-3.81.05-2.71.96-5.4,2.11-7.83,1.45-3.07,3.28-5.94,4.73-9.01.72-1.52,1.38-3.08,1.86-4.7.53-1.76.87-3.56,1.55-5.27.5-1.25-.55-2.75-1.75-3.08-1.43-.39-2.57.49-3.08,1.75h0Z"/>
  <path class="cls-1" d="M37.02,60.64c2.06.28,3.95,1.21,6.03,1.45,2.34.28,4.5-.63,6.6-1.54.53-.23,1-.96,1.15-1.49.16-.6.09-1.4-.25-1.93s-.86-1-1.49-1.15c-.7-.16-1.27-.03-1.93.25-.12.05-.24.1-.36.15.29-.12.31-.13.05-.02-.18.07-.37.15-.55.22-.43.16-.86.31-1.31.42-.19.05-.38.08-.57.12-.28.05-.26.04.09,0-.13.01-.26.02-.39.03-.19,0-.38,0-.57,0-.12,0-.25-.02-.37-.03.33.05.39.05.2.02-1.67-.4-3.3-1.08-5-1.31-.7-.09-1.29-.12-1.93.25-.52.3-1.01.9-1.15,1.49-.27,1.17.36,2.89,1.75,3.08h0Z"/>
  <path class="cls-1" d="M36.26,67.83c3.74,1.54,8,1.74,11.9.73,1.27-.33,2.16-1.81,1.75-3.08s-1.72-2.1-3.08-1.75c-.42.11-.84.2-1.27.28-.12.02-.24.04-.37.06-.28.04-.25.04.11-.01-.17.05-.38.04-.55.06-.86.08-1.73.08-2.6.02-.19-.01-.37-.03-.56-.05-.12-.01-.25-.03-.37-.04.36.05.39.05.11.01-.43-.07-.85-.15-1.28-.26-.84-.2-1.67-.48-2.47-.81-.56-.23-1.43-.04-1.93.25s-1.01.9-1.15,1.49c-.15.64-.11,1.36.25,1.93s.86.89,1.49,1.15h0Z"/>
  <path class="cls-1" d="M97.11,61.96c2.21.49,4.46.83,6.71,1.01s4.59.34,6.66-.71c1.17-.59,1.6-2.33.9-3.42-.77-1.2-2.17-1.53-3.42-.9-.25.12-.23.12.07-.02-.09.03-.18.06-.27.08-.09.03-.18.05-.28.07-.28.05-.25.05.09,0-.28.14-.85.04-1.16.04-.94-.01-1.88-.06-2.81-.14-.44-.04-.87-.08-1.31-.13-.07,0-.85-.11-.54-.07s-.46-.07-.53-.08c-.94-.15-1.87-.33-2.79-.54-1.27-.29-2.77.39-3.08,1.75-.29,1.27.38,2.77,1.75,3.08h0Z"/>
  <path class="cls-1" d="M95.78,69.47c2.32,1.04,4.67,1.7,7.21,1.96,2.33.24,4.67.01,6.99-.22,1.3-.13,2.56-1.06,2.5-2.5-.06-1.24-1.11-2.64-2.5-2.5-2.16.21-4.34.43-6.52.26-.24-.02-.47-.04-.71-.07.51.06-.17-.03-.28-.05-.55-.09-1.09-.21-1.63-.35-.46-.12-.92-.26-1.37-.41-.23-.08-.45-.16-.67-.24-.15-.06-.3-.12-.44-.18.23.1.21.09-.06-.03-1.19-.54-2.74-.38-3.42.9-.58,1.09-.38,2.85.9,3.42h0Z"/>
</svg>