<?xml version="1.0" encoding="UTF-8"?>
<svg id="_레이어_1" data-name="레이어_1" xmlns="http://www.w3.org/2000/svg" viewBox="0 0 142 125">
  <defs>
    <style>
      .cls-1 {
        fill: #7f5023;
      }
    </style>
  </defs>
  <path class="cls-1" d="M50.33,15.53c-5.43.99-11.01.05-16.49.4s-11.1,2.25-14.97,6.64-5.77,9.93-6.59,15.63c-.92,6.39-1.04,12.93-.94,19.38s.43,12.48,1.33,18.64c.69,4.76,1.96,9.72,4.7,13.75,3.16,4.65,7.77,7.05,13.22,8.07,6.18,1.16,12.47,1.15,18.72.8,7-.39,13.99-1.15,21-.89,3.38.12,6.68.54,9.98,1.25,3.54.76,7.04,1.69,10.62,2.28l-1.49-3.67c-2.12,4.91-3.47,9.97-4.07,15.29-.23,2.01,2.25,2.94,3.76,2.16,11.53-5.98,22.97-12.56,33.5-20.18,2.36-1.7,4.63-3.54,6.44-5.84,1.96-2.48,3.23-5.33,3.93-8.41,1.45-6.39,1.66-13.24,1.71-19.77s-.43-13.56-1.36-20.28c-.46-3.33-1.03-6.64-1.73-9.93-.62-2.89-1.26-5.96-3.03-8.4-3.66-5.01-10.35-5.5-16.01-6.33-6.8-.99-13.63-1.73-20.49-2.17-15.37-.99-30.82-.54-46.12,1.3-1.34.16-2.5,1.03-2.5,2.5,0,1.23,1.15,2.66,2.5,2.5,12.96-1.57,26.03-2.13,39.07-1.66,6.48.23,12.95.72,19.39,1.46,3.16.36,6.31.79,9.46,1.28,2.56.4,5.33.69,7.72,1.74,2.27,1,3.5,2.78,4.21,5.1.89,2.9,1.4,5.95,1.93,8.93,1.1,6.32,1.72,12.72,1.9,19.13.18,6.38-.08,12.78-.81,19.12-.31,2.71-.75,5.58-1.96,8.05s-2.99,4.29-5.02,5.98c-2.38,1.97-5.04,3.63-7.62,5.33-3.02,1.99-6.07,3.92-9.16,5.8-6.04,3.68-12.21,7.14-18.48,10.4l3.76,2.16c.49-4.37,1.65-8.73,3.39-12.76.57-1.31.27-3.38-1.49-3.67-5.96-.99-11.74-2.81-17.77-3.43s-11.97-.27-17.93.13-11.8.88-17.71.61c-4.88-.23-11.04-.61-14.89-4-3.21-2.82-4.76-6.94-5.7-11-1.19-5.14-1.48-10.49-1.73-15.74-.29-6.2-.26-12.43.12-18.63.33-5.39,1.04-10.97,3.8-15.71,1.3-2.23,3.03-4.26,5.24-5.63,2.33-1.45,5.04-2.1,7.76-2.31,6.09-.47,12.17.49,18.23-.61,1.33-.24,2.08-1.86,1.75-3.08-.38-1.4-1.74-1.99-3.08-1.75h0Z"/>
  <path class="cls-1" d="M51.07,32.46c-.02.15-.05.3-.1.44.12-.25.11-.24-.02.02-.32.42.28-.09-.18.2-.22.19-.23.21-.03.04-.13.09-.26.17-.4.24-.37.21.18.01-.35.12-.75.16-.77.19-1.56.23-.71.04-1.42.04-2.13.06-3,.08-5.99.16-8.99.24-1.31.04-2.56,1.12-2.5,2.5s1.1,2.54,2.5,2.5c3.52-.1,7.03-.18,10.55-.29,1.72-.05,3.45-.23,5-1.05s2.74-2.26,3.03-3.93c.22-1.28-.34-2.76-1.75-3.08-1.21-.28-2.84.37-3.08,1.75h0Z"/>
  <path class="cls-1" d="M87.24,30.74c0,1.07-.16,2.3.17,3.33.42,1.29,1.54,1.87,2.75,2.28,1.86.62,3.85.85,5.8.95,3.56.18,7.3-.21,10.66.57,1.31.31,2.71-.41,3.08-1.75.35-1.27-.43-2.77-1.75-3.08-2.97-.7-6-.69-9.03-.69-1.45,0-2.9-.04-4.34-.16-.48-.04-1.14-.16-1.76-.3-.3-.07-.6-.15-.89-.23-.2-.06-.39-.12-.59-.19-.48-.18-.39-.13.25.16l.64,1.1c-.02.22-.02.13,0-.25v-.53c0-.41.01-.82.01-1.23.01-1.35-1.16-2.5-2.5-2.5s-2.49,1.14-2.5,2.5h0Z"/>
  <path class="cls-1" d="M49.88,44.87c-1.55-.35-3.35-.07-4.43,1.2s-1.44,3.17-.46,4.64c1.43,2.14,4.17,2.42,6.53,2.28,1.43-.09,2.8-.47,3.85-1.49,1.23-1.19,1.71-3.15.87-4.69s-2.66-1.75-4.22-1.91c-1.15-.12-2.3-.01-3.44.19-1.58.28-3.23,1.03-3.64,2.75-.26,1.07.08,2.27.92,3,.42.37.86.63,1.41.77.82.2,1.49.02,2.25-.31.53-.23,1-.96,1.15-1.49.16-.6.09-1.4-.25-1.93s-.86-1-1.49-1.15l-.66-.09c-.45,0-.87.12-1.26.34l-.08.03.6-.25-.08.02.66-.09c-.05,0-.11,0-.16,0l.66.09c-.06,0-.11-.02-.16-.04l.6.25c-.05-.02-.1-.05-.15-.08l.51.39c-.07-.06-.12-.11-.18-.18l.39.51s-.06-.09-.08-.15l.25.6-.02-.08.09.66c-.01-.06-.01-.11,0-.17l-.09.66c0-.06.03-.12.05-.18l-.25.6c.03-.06.06-.11.1-.15l-.39.51s.08-.09.13-.13l-.51.39c.11-.08.22-.14.34-.2l-.6.25c.53-.22,1.11-.32,1.67-.4l-.66.09c.88-.12,1.76-.12,2.64-.01l-.66-.09c.49.07,1.02.14,1.48.33l-.6-.25.09.05-.51-.39c.06.04.11.08.15.14l-.39-.51c.04.05.07.11.09.17l-.25-.6c.02.06.04.13.05.19l-.09-.66c.02.14.02.27,0,.41l.09-.66c-.03.14-.06.27-.12.4l.25-.6c-.06.13-.13.25-.22.37l.39-.51c-.11.14-.24.27-.38.39l.51-.39c-.18.14-.37.25-.57.34l.6-.25c-.27.11-.55.18-.84.22l.66-.09c-.96.13-1.98.1-2.94-.03l.66.09c-.36-.06-.7-.14-1.03-.28l.6.25c-.18-.08-.35-.18-.51-.29l.51.39c-.13-.1-.24-.2-.34-.32l.39.51c-.07-.1-.14-.2-.19-.31l.25.6c-.05-.12-.08-.23-.1-.36l.09.66c0-.11,0-.21,0-.32l-.09.66c.02-.11.05-.21.08-.31l-.25.6c.06-.14.13-.26.22-.38l-.39.51c.07-.09.15-.16.23-.24l-.51.39c.12-.09.25-.17.39-.24l-.6.25c.19-.07.37-.12.56-.15l-.66.09c.2-.02.39-.01.59.01l-.66-.09c.08.01.15.03.23.05,1.27.29,2.77-.39,3.08-1.75.29-1.27-.38-2.76-1.75-3.08h0Z"/>
  <path class="cls-1" d="M97.07,43.37c-3.04-.09-6.31.27-9.15,1.4-1.53.61-2.86,1.6-3.45,3.19s-.22,3.36,1.01,4.56c2.16,2.11,5.94,1.83,8.71,1.84,3.15,0,6.31,0,9.47-.07,2.95-.07,6.27-1.07,6.93-4.37.7-3.48-2.57-5.47-5.47-6.17s-5.94-.7-8.85-.52-5.49.79-7.65,2.63c-1.63,1.39-1.99,3.94.01,5.2,1.47.92,3.35,1.2,5.03,1.4,3.57.43,7.18.17,10.68-.62,2.32-.52,2.45-4.39,0-4.82-3.67-.64-7.37-1.05-11.09-1.2-1.35-.05-2.5,1.19-2.5,2.5,0,1.45,1.15,2.38,2.5,2.5,1.93.17,3.85.23,5.78.16,3.21-.11,3.22-5.12,0-5-1.93.07-3.86.02-5.78-.16v5c3.27.13,6.53.46,9.76,1.02v-4.82c-2.1.47-4.21.69-6.37.65-1-.02-2.03-.06-3.02-.22-.43-.07-.86-.16-1.28-.27-.23-.06-.47-.16-.7-.21-.22-.04-.24-.14-.17-.05l.73,1.77v-.26c-.12.42-.24.84-.35,1.26.06-.13.6-.5.96-.68.53-.27,1.18-.44,1.81-.57,1.21-.25,2.51-.25,3.77-.25,1.53,0,3.1-.03,4.61.24.72.13,1.67.34,2.23.61,0,0,.44.26.45.27-.11-.05.19.16.17.18-.04.06-.19-.49-.19-.5,0-.02.07-.22.11-.19.06.04-.4.32-.43.33-.52.21-1.17.17-1.72.18-1.82.04-3.64.05-5.46.06s-3.52.02-5.28,0c-.91-.01-1.84-.03-2.75-.14-.22-.03-.43-.06-.65-.11-.12-.03-.6-.14-.58-.2-.01.03.32.72.32.72.02,0,.72-.3.75-.32.44-.14.88-.26,1.32-.37,1.89-.47,3.79-.63,5.73-.57,3.22.1,3.22-4.9,0-5h0Z"/>
  <path class="cls-1" d="M39.92,73.41c-.05.86-.34.74.57.24.5-.28.99-.55,1.49-.82,1.13-.63,2.27-1.26,3.4-1.89,2.12-1.17,4.22-2.41,6.38-3.5,4.23-2.12,9.14-2.12,13.78-2.19,9.85-.15,19.68,1.08,29.16,3.75,1.36.38,2.71.79,4.05,1.23,1.06.35,2.42.61,3.31,1.33.76.61,1.26,1.58,1.87,2.32.3.36.62.69.98.99.26.21.52.41.79.59l.27.17c.38.25.37.23-.04-.06l-.34-1.26v-.08c.22-.37.44-.74.65-1.1-.4.45-1.5.65-2.11.82-.98.29-2,.51-3.01.63-2.04.25-4.12.22-6.17.11-4.54-.25-9.04-.92-13.58-1.24-9.6-.69-19.25-.66-28.86-.07-2.63.16-5.26.37-7.88.61-1.38.13-2.75.28-4.12.41-.27.03-1.25-.06-1.42.05-.03.02-.12-.05-.16-.03.13.06.21.14.23.25.08.37-.02.73-.3,1.08.88-1.02,1-2.53,0-3.54-.9-.9-2.65-1.02-3.54,0-1.88,2.17-1.18,5.42,1.42,6.68,2.42,1.17,5.57.3,8.12.06,5.74-.53,11.49-.87,17.25-.99s11.68-.02,17.51.35c5.4.34,10.77,1.19,16.18,1.4,2.6.1,5.21-.03,7.77-.52,2.24-.43,6.02-1.19,6.83-3.66.46-1.4-.05-2.75-1.15-3.68-.78-.65-1.44-1.05-2.06-1.88-.69-.93-1.35-1.8-2.29-2.5-1.11-.82-2.43-1.28-3.73-1.72-10.75-3.65-22.15-5.48-33.5-5.54-6.07-.03-12.5,0-18.07,2.69-2.82,1.37-5.53,3-8.27,4.52-2.53,1.4-6.23,2.61-6.44,5.97s4.8,3.2,5,0h0Z"/>
  <path class="cls-1" d="M46.86,67.65c.06.41.12.82.18,1.24l-.09-.66c.3,2.22.46,4.45.5,6.69.02,1.31,1.14,2.56,2.5,2.5s2.52-1.1,2.5-2.5c-.05-2.88-.32-5.75-.77-8.6-.09-.58-.67-1.21-1.15-1.49-.54-.31-1.33-.45-1.93-.25s-1.19.57-1.49,1.15c-.33.63-.36,1.23-.25,1.93h0Z"/>
  <path class="cls-1" d="M55.4,64.57c.54,1.47.98,2.97,1.28,4.51.07.37.14.74.2,1.11.03.18.11.42.09.6-.05-.35-.06-.43-.03-.23.01.09.02.17.03.26.1.81.16,1.61.19,2.42.05,1.31,1.11,2.56,2.5,2.5,1.31-.06,2.55-1.1,2.5-2.5-.13-3.4-.76-6.8-1.94-10-.23-.62-.56-1.15-1.15-1.49-.54-.31-1.33-.45-1.93-.25-1.2.39-2.23,1.76-1.75,3.08h0Z"/>
  <path class="cls-1" d="M68.89,64.68v7.95c0,1.31,1.15,2.56,2.5,2.5s2.5-1.1,2.5-2.5v-7.95c0-1.31-1.15-2.56-2.5-2.5s-2.5,1.1-2.5,2.5h0Z"/>
  <path class="cls-1" d="M78.95,66.09c.48,1.73.84,3.49,1.08,5.27l-.09-.66c.13.99.22,1.99.28,2.99.07,1.3,1.1,2.56,2.5,2.5,1.29-.06,2.58-1.1,2.5-2.5-.17-3.01-.64-6.02-1.45-8.93-.35-1.26-1.79-2.16-3.08-1.75s-2.12,1.72-1.75,3.08h0Z"/>
  <path class="cls-1" d="M92.87,68.38c.47,1.12.79,2.3.96,3.51l-.09-.66c.15,1.13.16,2.26.03,3.39-.07.6.33,1.36.73,1.77.43.43,1.15.76,1.77.73s1.32-.24,1.77-.73c.48-.52.66-1.07.73-1.77.28-2.53-.1-5.21-1.08-7.56-.26-.63-.53-1.13-1.15-1.49-.54-.31-1.33-.45-1.93-.25s-1.19.57-1.49,1.15-.51,1.32-.25,1.93h0Z"/>
</svg>