<?xml version="1.0" encoding="UTF-8"?>
<svg id="_레이어_1" data-name="레이어_1" xmlns="http://www.w3.org/2000/svg" viewBox="0 0 142 125">
  <defs>
    <style>
      .cls-1 {
        fill: #f4de25;
      }
    </style>
  </defs>
  <path class="cls-1" d="M50.33,15.53c-5.43.99-11.01.05-16.49.4-5.71.37-11.1,2.25-14.97,6.64s-5.77,9.93-6.59,15.63c-.92,6.39-1.04,12.93-.94,19.38s.43,12.48,1.33,18.64c.69,4.76,1.96,9.72,4.7,13.75,3.16,4.65,7.77,7.05,13.22,8.07,6.18,1.16,12.47,1.15,18.72.8,7-.39,13.99-1.15,21-.89,3.38.12,6.68.54,9.98,1.25,3.54.76,7.04,1.69,10.62,2.28l-1.49-3.67c-2.12,4.91-3.47,9.97-4.07,15.29-.23,2.01,2.25,2.94,3.76,2.16,11.53-5.98,22.97-12.56,33.5-20.18,2.36-1.7,4.63-3.54,6.44-5.84,1.96-2.48,3.23-5.33,3.93-8.41,1.45-6.39,1.66-13.24,1.71-19.77s-.43-13.56-1.36-20.28c-.46-3.33-1.03-6.64-1.73-9.93-.62-2.89-1.26-5.96-3.03-8.4-3.66-5.01-10.35-5.5-16.01-6.33-6.8-.99-13.63-1.73-20.49-2.17-15.37-.99-30.82-.54-46.12,1.3-1.34.16-2.5,1.03-2.5,2.5,0,1.23,1.15,2.66,2.5,2.5,12.96-1.57,26.03-2.13,39.07-1.66,6.48.23,12.95.72,19.39,1.46,3.16.36,6.31.79,9.46,1.28,2.56.4,5.33.69,7.72,1.74,2.27,1,3.5,2.78,4.21,5.1.89,2.9,1.4,5.95,1.93,8.93,1.1,6.32,1.72,12.72,1.9,19.13.18,6.38-.08,12.78-.81,19.12-.31,2.71-.75,5.58-1.96,8.05s-2.99,4.29-5.02,5.98c-2.38,1.97-5.04,3.63-7.62,5.33-3.02,1.99-6.07,3.92-9.16,5.8-6.04,3.68-12.21,7.14-18.48,10.4l3.76,2.16c.49-4.37,1.65-8.73,3.39-12.76.57-1.31.27-3.38-1.49-3.67-5.96-.99-11.74-2.81-17.77-3.43-5.96-.61-11.97-.27-17.93.13-5.89.4-11.8.88-17.71.61-4.88-.23-11.04-.61-14.89-4-3.21-2.82-4.76-6.94-5.7-11-1.19-5.14-1.48-10.49-1.73-15.74-.29-6.2-.26-12.43.12-18.63.33-5.39,1.04-10.97,3.8-15.71,1.3-2.23,3.03-4.26,5.24-5.63,2.33-1.45,5.04-2.1,7.76-2.31,6.09-.47,12.17.49,18.23-.61,1.33-.24,2.08-1.86,1.75-3.08-.38-1.4-1.74-1.99-3.08-1.75h0Z"/>
  <path class="cls-1" d="M32.85,53.87c1.24-4.92,4.57-9.18,9.82-9.94,1.51-.22,3.1-.24,4.62-.17,1.12.05,2.29.23,3.16.97,1.94,1.66,2.73,4.32,4.72,5.99,1.03.87,2.52,1.01,3.54,0,.89-.89,1.04-2.66,0-3.54-2.37-1.98-3.25-5.14-5.9-6.91-3.13-2.1-7.71-1.73-11.26-1.19-6.98,1.05-11.87,6.85-13.53,13.46-.78,3.12,4.04,4.45,4.82,1.33h0Z"/>
  <path class="cls-1" d="M87.93,48.36c-.13-1.52-.33-3.15.11-4.64.33-1.11,1.08-1.96,1.94-2.7,2.14-1.84,5-3.19,7.75-3.79,2.42-.53,4.96-.26,7.09,1.06,2.48,1.54,2.84,4.3,4.1,6.72,1.49,2.85,5.81.33,4.32-2.52-.85-1.63-1.24-3.48-2.26-5.03-.97-1.46-2.27-2.68-3.78-3.58-3.25-1.94-7.14-2.27-10.79-1.47s-7.32,2.72-10.09,5.2c-3.2,2.86-3.72,6.67-3.37,10.74.11,1.35,1.07,2.5,2.5,2.5,1.26,0,2.62-1.15,2.5-2.5h0Z"/>
  <path class="cls-1" d="M46.48,54.75c-.68.19-1.32.43-1.97.71s-1.16.64-1.66,1.09c-.62.56-1.02,1.28-1.29,2.06s-.24,1.57-.11,2.36c.12.72.56,1.53,1.11,2.01.77.68,1.72,1.1,2.76,1.08.86-.02,1.72-.28,2.46-.72.55-.32,1.07-.74,1.47-1.24.29-.37.58-.72.77-1.14.18-.39.37-.8.45-1.23.19-1.07.15-2.26-.52-3.17-.16-.29-.37-.53-.64-.7-.24-.22-.52-.37-.85-.45-.6-.16-1.4-.09-1.93.25s-1,.86-1.15,1.49-.14,1.4.25,1.93c.07.09.13.19.18.3l-.25-.6c.05.12.08.25.11.38l-.09-.66c.02.17.02.34,0,.51l.09-.66c-.03.22-.1.43-.18.63l.25-.6c-.11.25-.25.48-.41.69l.39-.51c-.18.23-.37.43-.6.61l.51-.39c-.23.18-.48.33-.75.44l.6-.25c-.19.08-.38.13-.58.16l.66-.09c-.15.02-.31.02-.46,0l.66.09c-.13-.02-.26-.05-.38-.1l.6.25c-.11-.05-.2-.1-.3-.17l.51.39c-.09-.07-.18-.15-.25-.25l.39.51c-.08-.11-.14-.22-.19-.34l.25.6c-.05-.13-.08-.25-.1-.39l.09.66c-.03-.19-.02-.38,0-.57l-.09.66c.03-.21.09-.41.17-.61l-.25.6c.07-.16.16-.31.26-.46l-.39.51c.15-.19.33-.36.52-.51l-.51.39c.29-.22.62-.39.95-.54l-.6.25c.45-.19.91-.32,1.37-.46.61-.17,1.17-.6,1.49-1.15s.45-1.33.25-1.93-.57-1.19-1.15-1.49-1.27-.44-1.93-.25h0Z"/>
  <path class="cls-1" d="M99.72,49.45c-3.15.82-5.83,2.73-7.79,5.3-1.27,1.66-2.29,3.74-1.29,5.79.81,1.65,2.64,2.22,4.29,2.6,1.82.42,3.79.68,5.62.1s3.33-1.76,4.08-3.52c1.44-3.42-.95-7.48-4.51-8.24-1.88-.4-3.86-.11-5.53.85-1.88,1.07-3.13,3.1-2.57,5.29.46,1.79,2.18,3.28,3.97,3.62,2.15.41,4.04-.44,5.7-1.75,1.52-1.19,3.29-2.97,2.6-5.09s-3.42-2.81-5.43-2.71-3.85.93-5.06,2.59c-.96,1.32-1.28,3.19-.82,4.76.62,2.07,2.45,3.28,4.54,3.46,1.74.15,3.61-.67,4.77-1.94,2.51-2.73,2.53-7.17-.31-9.7-.76-.68-1.55-1.12-2.51-1.47-1.23-.45-2.79.51-3.08,1.75-.32,1.41.43,2.59,1.75,3.08.48.18-.54-.28-.09-.04.08.04.16.09.24.13.11.06.23.18.34.23-.45-.19-.35-.28-.14-.09.08.08.17.16.24.24.06.06.33.42.07.06s0,.02.04.08c.07.12.14.23.21.35l.06.12c.11.24.08.16-.09-.22,0,.1.08.23.1.33s.03.25.08.33c-.19-.36-.05-.53-.03-.18,0,.12.01.23,0,.35,0,.09-.05.55.01.09s0,0-.02.08c-.04.16-.08.32-.13.47-.11.32-.2.13.07-.14-.07.07-.11.22-.16.31-.06.1-.13.2-.19.3-.25.42.32-.35.09-.12-.08.08-.16.17-.24.26l-.1.1c-.2.17-.14.13.18-.12-.07.03-.16.11-.22.15-.08.05-.61.3-.17.12s-.27.07-.4.1c-.32.07-.25-.1.21-.02-.11-.02-.28,0-.39.01-.22.01-.29-.14.28.05-.11-.04-.26-.06-.37-.09-.24-.05-.11-.19.24.11-.06-.05-.56-.37-.18-.08.35.27.04,0-.03-.06-.33-.3.29.53.11.13-.03-.06-.07-.15-.11-.21.32.46.2.45.1.16-.06-.2.04-.37.03.32,0-.12-.02-.24-.02-.35,0-.08.02-.17.01-.24-.07.47-.08.57-.04.31.02-.08.04-.16.06-.24.02-.08.05-.15.07-.23.13-.45-.3.54-.06.15.04-.07.08-.14.12-.21l.07-.1c.15-.21.09-.13-.17.22.06-.04.12-.13.17-.18.21-.2.37-.15-.11.07.08-.04.16-.11.24-.16.08-.05.17-.09.25-.14-.38.15-.45.18-.2.09.2-.06.49-.21.69-.18-.02,0-.67.05-.23.03.15,0,.29-.02.44-.02.24,0,1.01.15.22-.02.29.06.58.11.86.19.09.03.19.06.28.09l.14.05c-.24-.06-.45-.19-.61-.37-.48-.49-.61-1.13-.46-1.73l.16-.35c-.04.08-.09.16-.14.24,0-.23.35-.39.12-.17-.11.1-.21.21-.31.32-.22.22-.45.43-.69.64-.08.07-.16.13-.24.2-.42.36.47-.32.01-.01-.21.14-.42.29-.65.41,0,0-.26.11-.27.14l.32-.13c-.09.04-.19.07-.28.1-.12.04-.24.07-.36.1-.6.13.44.01,0,0-.05,0-.2-.02-.26,0l.41.06c-.09-.02-.17-.03-.26-.06-.06-.02-.18-.08-.25-.08l.35.15c-.08-.04-.16-.08-.23-.12-.07-.04-.42-.3-.07-.02s.02,0-.04-.06-.33-.39-.05-.03,0-.09-.06-.17c.24.32.2.5.13.26-.13-.45.04.66.03.19s-.11.55-.02.24-.32.57-.07.16-.34.34-.11.12c.08-.08.17-.17.25-.25.34-.35-.39.25-.11.09.15-.08.28-.18.43-.26.07-.04.51-.22.11-.07s.06-.01.12-.03c.24-.08.48-.13.73-.19.51-.12-.49.03-.14.02.12,0,.25-.02.37-.02.15,0,.3.01.45.02.47.02-.57-.14-.08,0,.2.06.5.2.71.21-.43-.03-.4-.18-.13-.03.1.06.2.12.3.18.41.24-.43-.42-.11-.07.06.06.12.12.18.18l.09.09c.16.2.11.13-.15-.21.05.11.15.22.21.32.05.09.1.19.15.28.15.28-.21-.63-.08-.18.06.2.09.42.16.61-.2-.6-.05-.46-.04-.16,0,.08,0,.17,0,.25,0,.48.16-.63.02-.17-.03.11-.1.25-.1.36l.16-.36c-.04.08-.08.16-.12.23-.04.08-.11.15-.14.23l.23-.29c-.06.07-.12.14-.18.2-.06.07-.13.12-.19.19-.36.34.51-.31.08-.06-.08.05-.15.1-.23.14-.11.06-.27.11-.37.19.37-.15.46-.19.28-.12-.06.03-.13.05-.2.07-.22.07-.44.12-.67.17-.51.11.7-.03.08-.01-.12,0-.24.01-.36.02-.3,0-.59-.02-.89-.03-.61-.02.56.1-.04,0-.18-.03-.35-.06-.53-.09-.63-.12-1.27-.26-1.89-.46-.08-.03-.49-.19-.06,0s-.07-.06-.16-.09c-.38-.18.25.18.21.18-.06-.05-.12-.11-.17-.17.26.36.32.43.19.22.14.25.19.45.2.72,0-.27,0-.21-.04.19.03-.11.06-.21.1-.31.03,0-.3.57-.05.14.09-.15.17-.31.26-.46.15-.25.31-.49.47-.73.07-.1.16-.19.21-.29-.32.58-.16.21-.03.05.37-.44.78-.86,1.21-1.24.11-.1.22-.19.33-.28.35-.3-.46.33-.05.03.24-.17.47-.34.72-.49s.5-.3.75-.44c.24-.13.57-.22.78-.38-.03.02-.58.23-.2.08.18-.07.36-.14.54-.2.27-.09.55-.17.83-.25,1.27-.33,2.16-1.8,1.75-3.08s-1.72-2.1-3.08-1.75h0Z"/>
  <path class="cls-1" d="M58.18,66.04c7.84.93,15.92-.92,22.64-5.06l-3.42-.9c3.66,5.15,3.74,12.28-.51,17.16-1.82,2.09-4.08,3.54-6.92,2.94-2.66-.56-4.88-2.25-6.27-4.56-1.95-3.22-2.42-7.06-2.47-10.76-.05-3.21-5.05-3.22-5,0,.12,8.16,2.91,17.33,11.59,19.93s15.74-5.32,17.06-13.23c.81-4.88-.28-9.95-3.15-14-.77-1.08-2.19-1.66-3.42-.9-6.05,3.72-13.07,5.21-20.12,4.37-1.34-.16-2.5,1.26-2.5,2.5,0,1.48,1.15,2.34,2.5,2.5h0Z"/>
</svg>