<?xml version="1.0" encoding="UTF-8"?>
<svg id="_레이어_1" data-name="레이어_1" xmlns="http://www.w3.org/2000/svg" viewBox="0 0 142 125">
  <defs>
    <style>
      .cls-1 {
        fill: #040000;
      }
    </style>
  </defs>
  <path class="cls-1" d="M50.33,15.53c-5.43.99-11.01.05-16.49.4s-11.1,2.25-14.97,6.64c-3.85,4.37-5.77,9.93-6.59,15.63-.92,6.39-1.04,12.93-.94,19.38s.43,12.48,1.33,18.64c.69,4.76,1.96,9.72,4.7,13.75,3.16,4.65,7.77,7.05,13.22,8.07,6.18,1.16,12.47,1.15,18.72.8,7-.39,13.99-1.15,21-.89,3.38.12,6.68.54,9.98,1.25,3.54.76,7.04,1.69,10.62,2.28l-1.49-3.67c-2.12,4.91-3.47,9.97-4.07,15.29-.23,2.01,2.25,2.94,3.76,2.16,11.53-5.98,22.97-12.56,33.5-20.18,2.36-1.7,4.63-3.54,6.44-5.84,1.96-2.48,3.23-5.33,3.93-8.41,1.45-6.39,1.66-13.24,1.71-19.77s-.43-13.56-1.36-20.28c-.46-3.33-1.03-6.64-1.73-9.93-.62-2.89-1.26-5.96-3.03-8.4-3.66-5.01-10.35-5.5-16.01-6.33-6.8-.99-13.63-1.73-20.49-2.17-15.37-.99-30.82-.54-46.12,1.3-1.34.16-2.5,1.03-2.5,2.5,0,1.23,1.15,2.66,2.5,2.5,12.96-1.57,26.03-2.13,39.07-1.66,6.48.23,12.95.72,19.39,1.46,3.16.36,6.31.79,9.46,1.28,2.56.4,5.33.69,7.72,1.74,2.27,1,3.5,2.78,4.21,5.1.89,2.9,1.4,5.95,1.93,8.93,1.1,6.32,1.72,12.72,1.9,19.13.18,6.38-.08,12.78-.81,19.12-.31,2.71-.75,5.58-1.96,8.05s-2.99,4.29-5.02,5.98c-2.38,1.97-5.04,3.63-7.62,5.33-3.02,1.99-6.07,3.92-9.16,5.8-6.04,3.68-12.21,7.14-18.48,10.4l3.76,2.16c.49-4.37,1.65-8.73,3.39-12.76.57-1.31.27-3.38-1.49-3.67-5.96-.99-11.74-2.81-17.77-3.43s-11.97-.27-17.93.13-11.8.88-17.71.61c-4.88-.23-11.04-.61-14.89-4-3.21-2.82-4.76-6.94-5.7-11-1.19-5.14-1.48-10.49-1.73-15.74-.29-6.2-.26-12.43.12-18.63.33-5.39,1.04-10.97,3.8-15.71,1.3-2.23,3.03-4.26,5.24-5.63,2.33-1.45,5.04-2.1,7.76-2.31,6.09-.47,12.17.49,18.23-.61,1.33-.24,2.08-1.86,1.75-3.08-.38-1.4-1.74-1.99-3.08-1.75h0Z"/>
  <path class="cls-1" d="M30.38,43.49c1.54-1.01,3.16-1.89,4.91-2.5.87-.31,1.76-.56,2.66-.77,1.06-.24.91-.29,1.65.48,1.94,2.02,4.38,4.65,3.14,7.65-.49,1.18-1.41,2.12-2.53,2.71-1.59.84-3.1,1.35-3.92,3.11s-.63,4.13-.69,6.11c-.07,2.32-.14,4.65-.21,6.97-.1,3.22,4.9,3.22,5,0,.08-2.66.16-5.31.24-7.97.02-.5.03-1,.05-1.49,0-.31-.08-1.06.08-1.34.29-.49,1.13-.66,1.66-.91,3.52-1.68,6.01-5.72,5.64-9.65-.21-2.16-1.12-4.1-2.42-5.81s-2.73-3.65-4.63-4.54c-2.13-1-4.74-.15-6.84.57-2.22.76-4.34,1.79-6.3,3.07-2.68,1.76-.17,6.09,2.52,4.32h0Z"/>
  <path class="cls-1" d="M35.35,79.23l.61.31c.29.18.6.28.93.3.33.07.66.06,1-.04.33-.08.61-.23.85-.45.27-.18.49-.41.64-.7l.25-.6c.12-.44.12-.89,0-1.33l-.25-.6c-.22-.38-.52-.67-.9-.9l-.61-.31c-.29-.18-.6-.28-.93-.3-.33-.07-.66-.06-1,.04-.33.08-.61.23-.85.45-.27.18-.49.41-.64.7l-.25.6c-.12.44-.12.89,0,1.33l.25.6c.22.38.52.67.9.9h0Z"/>
  <path class="cls-1" d="M67.77,37.56c.91-1.01,2.2-1.62,3.59-1.42,1.51.22,2.71,1.49,3.6,2.64,1.97,2.55,2.93,6.06,1.67,9.14-1.39,3.39-5.43,4.16-7,7.43-.84,1.75-1,3.67-.96,5.59.04,1.68.23,3.4-.21,5.04-.84,3.11,3.99,4.44,4.82,1.33.44-1.64.49-3.33.43-5.02-.05-1.45-.28-3.13.29-4.51.52-1.26,1.92-1.9,2.96-2.66,1.44-1.04,2.67-2.28,3.55-3.83,1.78-3.13,2.13-6.97,1.07-10.4s-3.4-6.93-6.56-8.67c-3.51-1.93-8.11-1.17-10.79,1.81-2.15,2.39,1.38,5.93,3.54,3.54h0Z"/>
  <path class="cls-1" d="M69.95,82.6h.31c.34.01.67-.06.96-.22.31-.1.58-.27.8-.52.24-.23.42-.49.52-.8.16-.3.23-.62.22-.96l-.09-.66c-.12-.42-.33-.79-.64-1.1l-.51-.39c-.39-.23-.81-.34-1.26-.34h-.31c-.34-.01-.67.06-.96.22-.31.1-.58.27-.8.52-.24.23-.42.49-.52.8-.16.3-.23.62-.22.96l.09.66c.12.42.33.79.64,1.1l.51.39c.39.23.81.34,1.26.34h0Z"/>
  <path class="cls-1" d="M102.05,38.1c1.51-2.3,4.91.04,6.21,1.33,2.35,2.34,4.6,5.3,5.49,8.54s-.26,5.8-2.75,7.75c-1.42,1.12-3.1,1.91-4.74,2.65s-3.77,1.35-5.2,2.55c-1.96,1.63-1.42,4.48-1.4,6.76.03,2.4.05,4.8.08,7.2.04,3.22,5.04,3.22,5,0-.03-2.4-.05-4.8-.08-7.2,0-.32.14-3.29-.04-3.36.51.2-1.11.65-.18.35.21-.07.42-.21.61-.3.61-.3,1.24-.57,1.86-.85,3.92-1.74,7.82-3.56,10.31-7.22s2.11-8.39.32-12.36c-1.66-3.67-4.49-7.33-7.74-9.73-3.74-2.76-9.35-2.8-12.08,1.37-1.77,2.7,2.56,5.21,4.32,2.52h0Z"/>
  <path class="cls-1" d="M104.88,83.09s-.03-.03-.05-.05c-.08-.07-.43-.34-.52-.4,0,0-.02-.01-.03-.02,0,0-.01,0-.02-.01-.08-.04-.52-.23-.61-.26-.02,0-.04-.01-.06-.02-.1-.02-.58-.08-.68-.09,0,0-.02,0-.03,0-.21,0-1.04.15-.7.09-.02,0-.04,0-.05.01,0,0-.01,0-.02,0,0,0-.01,0-.02,0l-.6.25s-.07.04-.1.06c-.13.09-.44.3-.6.48s-.32.38-.46.59-.26.59-.31.71c-.02.04-.03.08-.04.12,0,.01,0,.02,0,.03-.03.19-.07.49-.09.68,0,.02,0,.05,0,.07.03.51.13,1.06.42,1.49.15.21.3.43.48.61.02.02.04.04.06.06.16.13.36.28.52.4.02.01.03.02.05.03.04.03.09.06.14.08.24.11.49.23.74.31.06.02.13.04.19.05.28.05.56.09.85.12.13.01.27.02.4.02.34.01.67-.06.96-.22.31-.1.58-.27.8-.52.24-.23.42-.49.52-.8.16-.3.23-.62.22-.96l-.09-.66c-.12-.42-.33-.79-.64-1.1l-.51-.39c-.39-.23-.81-.34-1.26-.34-.15,0-.31,0-.46-.03l.66.09c-.15-.02-.3-.05-.44-.11l.6.25c-.08-.03-.15-.08-.22-.13l.51.39s-.09-.08-.13-.13l.39.51s-.06-.08-.08-.12l.25.6s-.03-.07-.03-.11l.09.66s0-.08,0-.12l-.09.66c0-.05.02-.11.04-.16l-.25.6c.02-.05.05-.11.09-.15l-.39.51s.08-.09.12-.12l-.51.39s.07-.05.11-.06l-.6.25s.06-.02.1-.03l-.66.09s.05,0,.08,0l-.66-.09s.04,0,.06.02l-.6-.25s.04.02.06.04l-.51-.39s.04.03.06.05c.23.24.49.42.8.52.3.16.62.23.96.22.34.01.67-.06.96-.22.31-.1.58-.27.8-.52l.39-.51c.23-.39.34-.81.34-1.26l-.09-.66c-.12-.42-.33-.79-.64-1.1h0Z"/>
</svg>