<?xml version="1.0" encoding="UTF-8"?>
<svg id="_레이어_1" data-name="레이어_1" xmlns="http://www.w3.org/2000/svg" viewBox="0 0 142 125">
  <defs>
    <style>
      .cls-1 {
        fill: #2e449a;
      }
    </style>
  </defs>
  <path class="cls-1" d="M50.33,15.53c-5.43.99-11.01.05-16.49.4-5.71.37-11.1,2.25-14.97,6.64s-5.77,9.93-6.59,15.63c-.92,6.39-1.04,12.93-.94,19.38s.43,12.48,1.33,18.64c.69,4.76,1.96,9.72,4.7,13.75,3.16,4.65,7.77,7.05,13.22,8.07,6.18,1.16,12.47,1.15,18.72.8,7-.39,13.99-1.15,21-.89,3.38.12,6.68.54,9.98,1.25,3.54.76,7.04,1.69,10.62,2.28l-1.49-3.67c-2.12,4.91-3.47,9.97-4.07,15.29-.23,2.01,2.25,2.94,3.76,2.16,11.53-5.98,22.97-12.56,33.5-20.18,2.36-1.7,4.63-3.54,6.44-5.84,1.96-2.48,3.23-5.33,3.93-8.41,1.45-6.39,1.66-13.24,1.71-19.77s-.43-13.56-1.36-20.28c-.46-3.33-1.03-6.64-1.73-9.93-.62-2.89-1.26-5.96-3.03-8.4-3.66-5.01-10.35-5.5-16.01-6.33-6.8-.99-13.63-1.73-20.49-2.17-15.37-.99-30.82-.54-46.12,1.3-1.34.16-2.5,1.03-2.5,2.5,0,1.23,1.15,2.66,2.5,2.5,12.96-1.57,26.03-2.13,39.07-1.66,6.48.23,12.95.72,19.39,1.46,3.16.36,6.31.79,9.46,1.28,2.56.4,5.33.69,7.72,1.74,2.27,1,3.5,2.78,4.21,5.1.89,2.9,1.4,5.95,1.93,8.93,1.1,6.32,1.72,12.72,1.9,19.13.18,6.38-.08,12.78-.81,19.12-.31,2.71-.75,5.58-1.96,8.05s-2.99,4.29-5.02,5.98c-2.38,1.97-5.04,3.63-7.62,5.33-3.02,1.99-6.07,3.92-9.16,5.8-6.04,3.68-12.21,7.14-18.48,10.4l3.76,2.16c.49-4.37,1.65-8.73,3.39-12.76.57-1.31.27-3.38-1.49-3.67-5.96-.99-11.74-2.81-17.77-3.43s-11.97-.27-17.93.13-11.8.88-17.71.61c-4.88-.23-11.04-.61-14.89-4-3.21-2.82-4.76-6.94-5.7-11-1.19-5.14-1.48-10.49-1.73-15.74-.29-6.2-.26-12.43.12-18.63.33-5.39,1.04-10.97,3.8-15.71,1.3-2.23,3.03-4.26,5.24-5.63,2.33-1.45,5.04-2.1,7.76-2.31,6.09-.47,12.17.49,18.23-.61,1.33-.24,2.08-1.86,1.75-3.08-.38-1.4-1.74-1.99-3.08-1.75h0Z"/>
  <path class="cls-1" d="M54.72,43.82c-2.27,2.53-5.77,2.71-8.95,2.7-4.1-.02-8.11.08-12.18.64-1.34.19-2.07,1.9-1.75,3.08.4,1.44,1.73,1.93,3.08,1.75,4.2-.58,8.36-.33,12.58-.48,3.93-.14,8.04-1.11,10.76-4.14,2.14-2.39-1.38-5.94-3.54-3.54h0Z"/>
  <path class="cls-1" d="M90.06,45.22c.28,2.1,2.18,3.62,4.12,4.17s4.23.44,6.26.44c3.88,0,7.88-.56,11.67.51,3.1.87,4.43-3.95,1.33-4.82-3.48-.97-7.07-.83-10.64-.73-1.8.05-3.6.06-5.4-.02-.77-.03-1.51-.04-2.24-.31,0,0-.32-.28-.19-.16-.08-.08-.06-.15-.09-.41-.18-1.34-1.9-2.07-3.08-1.75-1.45.4-1.93,1.73-1.75,3.08h0Z"/>
  <path class="cls-1" d="M35.98,50.13c-3.51,3.75-3.85,9-4.24,13.87s-.24,10.31,2.39,14.8l1.49-3.67-.34.05h1.33c-.72-.11-1.3-.6-2.01-.77-.85-.21-1.75-.12-2.55.2-1.62.65-2.78,2.23-2.87,3.98-.2,3.8,3.47,5.89,6.83,5.95,2.9.05,6.32-1.62,6.24-4.94s-4.14-5.34-6.76-3.45c-1.1.79-1.62,2.18-.9,3.42.63,1.08,2.32,1.69,3.42.9.53-.38-.2.04-.39-.03-.11-.04-.17-.08-.24-.17-.17-.21.04-.83-.06-.92,0,0-.66.2-.85.22-.24.03-.86,0-1.22-.08s-.69-.39-1-.46c-.24-.06-.01.12-.27.18.15-.04-.63.17-.63.05,0,.08.88.43.96.46.9.38,1.66.39,2.63.25,1.63-.24,2.23-2.42,1.49-3.67-2.1-3.59-2.03-7.84-1.74-11.86.26-3.51.26-8.02,2.8-10.75,2.19-2.35-1.33-5.89-3.54-3.54h0Z"/>
  <path class="cls-1" d="M109.16,50.36c1.05,4.36,2.1,8.73,3.15,13.09.84,3.49,2.01,7.68.5,11.17-.5,1.14-.43,2.42.64,3.23.94.7,2.45.76,3.28-.2.31-.35.72-.68,1.15-.49.18.08.27.23.41.36.63.62-.61.58.43-.23l1.1-.64c-1,.34-2.35.19-3.39.08s-2.44-.29-3.19-.86l.9.9-.14-.27.34,1.26c-1.15.83-1.31,1.17-.5,1.02,3.2-.19,3.22-5.19,0-5-1.77.11-3.49.64-4.23,2.4-.78,1.87.16,3.75,1.99,4.47,2.72,1.09,6.69,1.76,9.55.82,3.53-1.16,2.41-6.04.24-7.92-2.38-2.06-6.11-1.8-8.2.57l3.93,3.03c1.94-4.48,1.39-9.07.31-13.71s-2.31-9.6-3.46-14.4c-.75-3.13-5.58-1.8-4.82,1.33h0Z"/>
  <path class="cls-1" d="M59.54,75.68c3.55-5.32,11.01-6.42,16.84-7.3,1.92-.29,3.86-.55,5.8-.74,1.68-.16,3.48-.31,4.96.61s2.78,2.49,4.06,3.73c1.5,1.46,3,2.92,4.5,4.39,2.31,2.25,5.84-1.28,3.54-3.54-1.73-1.69-3.46-3.37-5.19-5.06-1.55-1.51-3.11-3.27-5.09-4.23-4.08-1.96-9.17-.68-13.44-.05-7.53,1.11-15.79,2.92-20.29,9.67-1.79,2.68,2.54,5.19,4.32,2.52h0Z"/>
  <path class="cls-1" d="M43.76,35.62c2.45.52,4.95.94,7.46.97,2.65.02,5.18-.47,7.61-1.53,1.2-.52,1.57-2.38.9-3.42-.8-1.25-2.13-1.46-3.42-.9.47-.21-.38.14-.47.17-.22.07-.43.14-.65.2-.51.15-1.03.24-1.55.35-.59.11.31-.01-.24.03-.3.03-.61.06-.91.07-.5.03-1,.03-1.49.02s-1-.04-1.5-.08c-.31-.03-.62-.06-.93-.09-.11-.01-.79-.11-.26-.03-1.07-.16-2.14-.36-3.2-.58-1.28-.27-2.76.38-3.08,1.75-.29,1.26.38,2.78,1.75,3.08h0Z"/>
  <path class="cls-1" d="M80.53,33.72c3,1.66,6.27,2.49,9.66,2.83,3.19.32,6.65.35,9.52-1.26,1.18-.66,1.57-2.27.9-3.42s-2.24-1.56-3.42-.9c-.89.5-1.83.68-2.96.73-1.34.06-2.7,0-4.04-.14-1.06-.11-2.44-.37-3.68-.72-1.33-.38-2.27-.77-3.46-1.43s-2.73-.29-3.42.9-.29,2.76.9,3.42h0Z"/>
  <path class="cls-1" d="M75.45,75.84c.08-.07.15-.13.23-.19l-.51.39c.28-.21.58-.39.91-.53l-.6.25c.37-.15.76-.26,1.16-.31l-.66.09c.4-.05.8-.05,1.2,0l-.66-.09c.37.05.73.15,1.08.3l-.6-.25c.23.1.45.22.66.36.52.35,1.33.42,1.93.25s1.21-.61,1.49-1.15c.31-.58.46-1.28.25-1.93s-.58-1.12-1.15-1.49c-1.13-.75-2.63-1.13-3.98-1.02-.68.05-1.38.15-2.01.41-.88.35-1.56.74-2.28,1.38-.46.41-.73,1.17-.73,1.77s.27,1.35.73,1.77,1.1.76,1.77.73,1.25-.28,1.77-.73h0Z"/>
</svg>